<?xml version="1.0" encoding="UTF-8" standalone="no"?>
<!DOCTYPE svg PUBLIC "-//W3C//DTD SVG 1.1//EN"
 "http://www.w3.org/Graphics/SVG/1.1/DTD/svg11.dtd">
<!-- Generated by graphviz version 2.40.1 (20161225.0304)
 -->
<!-- Title: behaviour_tree Pages: 1 -->
<svg width="2747pt" height="332pt"
 viewBox="0.00 0.00 2747.28 332.00" xmlns="http://www.w3.org/2000/svg" xmlns:xlink="http://www.w3.org/1999/xlink">
<g id="graph0" class="graph" transform="scale(1 1) rotate(0) translate(4 328)">
<title>behaviour_tree</title>
<polygon fill="#ffffff" stroke="transparent" points="-4,4 -4,-328 2743.2846,-328 2743.2846,4 -4,4"/>
<!-- Behaviour Tree -->
<g id="node1" class="node">
<title>Behaviour Tree</title>
<polygon fill="#00ffff" stroke="#000000" points="568.7552,-324 532.7552,-324 532.7552,-288 568.7552,-288 568.7552,-324"/>
<text text-anchor="middle" x="550.7552" y="-303.2" font-family="Times,serif" font-size="11.00" fill="#000000">→</text>
</g>
<!-- Initialization -->
<g id="node2" class="node">
<title>Initialization</title>
<polygon fill="#00ffff" stroke="#000000" points="306.7552,-252 270.7552,-252 270.7552,-216 306.7552,-216 306.7552,-252"/>
<text text-anchor="middle" x="288.7552" y="-231.2" font-family="Times,serif" font-size="11.00" fill="#000000">?</text>
</g>
<!-- Behaviour Tree&#45;&gt;Initialization -->
<g id="edge1" class="edge">
<title>Behaviour Tree&#45;&gt;Initialization</title>
<path fill="none" stroke="#000000" d="M532.7469,-301.0511C487.875,-288.72 370.8242,-256.5533 316.8115,-241.7101"/>
<polygon fill="#000000" stroke="#000000" points="317.4595,-238.2585 306.8895,-238.9835 315.6046,-245.0083 317.4595,-238.2585"/>
</g>
<!-- Behaviour -->
<g id="node8" class="node">
<title>Behaviour</title>
<polygon fill="#00ffff" stroke="#000000" points="1113.7552,-252 1077.7552,-252 1077.7552,-216 1113.7552,-216 1113.7552,-252"/>
<text text-anchor="middle" x="1095.7552" y="-231.2" font-family="Times,serif" font-size="11.00" fill="#000000">?</text>
</g>
<!-- Behaviour Tree&#45;&gt;Behaviour -->
<g id="edge7" class="edge">
<title>Behaviour Tree&#45;&gt;Behaviour</title>
<path fill="none" stroke="#000000" d="M568.8883,-303.6044C648.8216,-293.0444 970.0584,-250.6058 1067.5568,-237.7253"/>
<polygon fill="#000000" stroke="#000000" points="1068.0985,-241.1842 1077.554,-236.4046 1067.1817,-234.2445 1068.0985,-241.1842"/>
</g>
<!-- Has initialized? -->
<g id="node3" class="node">
<title>Has initialized?</title>
<ellipse fill="#c0c0c0" stroke="#000000" cx="200.7552" cy="-162" rx="52.1334" ry="18"/>
<text text-anchor="middle" x="200.7552" y="-159.2" font-family="Times,serif" font-size="11.00" fill="#000000">Has initialized?</text>
</g>
<!-- Initialization&#45;&gt;Has initialized? -->
<g id="edge2" class="edge">
<title>Initialization&#45;&gt;Has initialized?</title>
<path fill="none" stroke="#000000" d="M270.5215,-219.0816C258.598,-209.326 242.7768,-196.3814 229.2154,-185.2857"/>
<polygon fill="#000000" stroke="#000000" points="231.0746,-182.2845 221.1186,-178.661 226.6419,-187.7023 231.0746,-182.2845"/>
</g>
<!-- Initialize -->
<g id="node4" class="node">
<title>Initialize</title>
<polygon fill="#00ffff" stroke="#000000" points="306.7552,-180 270.7552,-180 270.7552,-144 306.7552,-144 306.7552,-180"/>
<text text-anchor="middle" x="288.7552" y="-159.2" font-family="Times,serif" font-size="11.00" fill="#000000">→</text>
</g>
<!-- Initialization&#45;&gt;Initialize -->
<g id="edge3" class="edge">
<title>Initialization&#45;&gt;Initialize</title>
<path fill="none" stroke="#000000" d="M288.7552,-215.8314C288.7552,-208.131 288.7552,-198.9743 288.7552,-190.4166"/>
<polygon fill="#000000" stroke="#000000" points="292.2553,-190.4132 288.7552,-180.4133 285.2553,-190.4133 292.2553,-190.4132"/>
</g>
<!-- Next waypoint exists? -->
<g id="node5" class="node">
<title>Next waypoint exists?</title>
<ellipse fill="#c0c0c0" stroke="#000000" cx="69.7552" cy="-90" rx="69.5112" ry="18"/>
<text text-anchor="middle" x="69.7552" y="-87.2" font-family="Times,serif" font-size="11.00" fill="#000000">Next waypoint exists?</text>
</g>
<!-- Initialize&#45;&gt;Next waypoint exists? -->
<g id="edge4" class="edge">
<title>Initialize&#45;&gt;Next waypoint exists?</title>
<path fill="none" stroke="#000000" d="M270.6125,-148.8035C267.7332,-147.036 264.7238,-145.3654 261.7552,-144 238.4063,-133.261 177.5799,-116.8199 130.589,-104.9001"/>
<polygon fill="#000000" stroke="#000000" points="131.3424,-101.4805 120.7901,-102.4288 129.6306,-108.268 131.3424,-101.4805"/>
</g>
<!-- Replan path -->
<g id="node6" class="node">
<title>Replan path</title>
<polygon fill="#c0c0c0" stroke="#000000" points="216.7552,-108 157.1964,-90 216.7552,-72 276.314,-90 216.7552,-108"/>
<text text-anchor="middle" x="216.7552" y="-87.2" font-family="Times,serif" font-size="11.00" fill="#000000">Replan path</text>
</g>
<!-- Initialize&#45;&gt;Replan path -->
<g id="edge5" class="edge">
<title>Initialize&#45;&gt;Replan path</title>
<path fill="none" stroke="#000000" d="M270.5865,-143.8314C260.6639,-133.9087 248.3233,-121.5681 237.9619,-111.2067"/>
<polygon fill="#000000" stroke="#000000" points="240.3758,-108.6709 230.8298,-104.0747 235.4261,-113.6206 240.3758,-108.6709"/>
</g>
<!-- Set initialized -->
<g id="node7" class="node">
<title>Set initialized</title>
<polygon fill="#c0c0c0" stroke="#000000" points="360.7552,-108 294.5892,-90 360.7552,-72 426.9211,-90 360.7552,-108"/>
<text text-anchor="middle" x="360.7552" y="-87.2" font-family="Times,serif" font-size="11.00" fill="#000000">Set initialized</text>
</g>
<!-- Initialize&#45;&gt;Set initialized -->
<g id="edge6" class="edge">
<title>Initialize&#45;&gt;Set initialized</title>
<path fill="none" stroke="#000000" d="M306.9238,-143.8314C316.7124,-134.0428 328.854,-121.9012 339.1274,-111.6278"/>
<polygon fill="#000000" stroke="#000000" points="341.6212,-114.0838 346.2174,-104.5378 336.6714,-109.134 341.6212,-114.0838"/>
</g>
<!-- Pause? -->
<g id="node9" class="node">
<title>Pause?</title>
<polygon fill="#00ffff" stroke="#000000" points="645.7552,-180 609.7552,-180 609.7552,-144 645.7552,-144 645.7552,-180"/>
<text text-anchor="middle" x="627.7552" y="-159.2" font-family="Times,serif" font-size="11.00" fill="#000000">→</text>
</g>
<!-- Behaviour&#45;&gt;Pause? -->
<g id="edge8" class="edge">
<title>Behaviour&#45;&gt;Pause?</title>
<path fill="none" stroke="#000000" d="M1077.6958,-231.2216C1006.178,-220.2189 742.4915,-179.6517 655.6741,-166.2952"/>
<polygon fill="#000000" stroke="#000000" points="656.1767,-162.8314 645.7608,-164.7701 655.1122,-169.75 656.1767,-162.8314"/>
</g>
<!-- Is at goal? -->
<g id="node12" class="node">
<title>Is at goal?</title>
<polygon fill="#00ffff" stroke="#000000" points="972.7552,-180 936.7552,-180 936.7552,-144 972.7552,-144 972.7552,-180"/>
<text text-anchor="middle" x="954.7552" y="-159.2" font-family="Times,serif" font-size="11.00" fill="#000000">→</text>
</g>
<!-- Behaviour&#45;&gt;Is at goal? -->
<g id="edge11" class="edge">
<title>Behaviour&#45;&gt;Is at goal?</title>
<path fill="none" stroke="#000000" d="M1077.6106,-224.7347C1053.2864,-212.3138 1009.913,-190.1657 981.7489,-175.784"/>
<polygon fill="#000000" stroke="#000000" points="983.328,-172.6605 972.8302,-171.2298 980.1445,-178.8947 983.328,-172.6605"/>
</g>
<!-- Plannin timeout -->
<g id="node16" class="node">
<title>Plannin timeout</title>
<polygon fill="#00ffff" stroke="#000000" points="1267.7552,-180 1231.7552,-180 1231.7552,-144 1267.7552,-144 1267.7552,-180"/>
<text text-anchor="middle" x="1249.7552" y="-159.2" font-family="Times,serif" font-size="11.00" fill="#000000">→</text>
</g>
<!-- Behaviour&#45;&gt;Plannin timeout -->
<g id="edge15" class="edge">
<title>Behaviour&#45;&gt;Plannin timeout</title>
<path fill="none" stroke="#000000" d="M1114.0258,-225.4579C1140.77,-212.9541 1190.7864,-189.5698 1222.0647,-174.9462"/>
<polygon fill="#000000" stroke="#000000" points="1223.9319,-177.9369 1231.5084,-170.531 1220.9672,-171.5957 1223.9319,-177.9369"/>
</g>
<!-- Collision -->
<g id="node20" class="node">
<title>Collision</title>
<polygon fill="#00ffff" stroke="#000000" points="1836.7552,-180 1800.7552,-180 1800.7552,-144 1836.7552,-144 1836.7552,-180"/>
<text text-anchor="middle" x="1818.7552" y="-159.2" font-family="Times,serif" font-size="11.00" fill="#000000">→</text>
</g>
<!-- Behaviour&#45;&gt;Collision -->
<g id="edge19" class="edge">
<title>Behaviour&#45;&gt;Collision</title>
<path fill="none" stroke="#000000" d="M1113.9888,-232.1842C1211.4694,-222.4766 1671.1208,-176.7022 1790.4148,-164.8223"/>
<polygon fill="#000000" stroke="#000000" points="1790.9669,-168.2847 1800.5709,-163.8109 1790.2732,-161.3192 1790.9669,-168.2847"/>
</g>
<!-- Path planning -->
<g id="node24" class="node">
<title>Path planning</title>
<polygon fill="#00ffff" stroke="#000000" points="2244.7552,-180 2208.7552,-180 2208.7552,-144 2244.7552,-144 2244.7552,-180"/>
<text text-anchor="middle" x="2226.7552" y="-159.2" font-family="Times,serif" font-size="11.00" fill="#000000">?</text>
</g>
<!-- Behaviour&#45;&gt;Path planning -->
<g id="edge23" class="edge">
<title>Behaviour&#45;&gt;Path planning</title>
<path fill="none" stroke="#000000" d="M1113.9786,-232.8399C1244.658,-224.5208 2038.5145,-173.9835 2198.6256,-163.7907"/>
<polygon fill="#000000" stroke="#000000" points="2198.8854,-167.2814 2208.6428,-163.153 2198.4406,-160.2955 2198.8854,-167.2814"/>
</g>
<!-- Status pause -->
<g id="node10" class="node">
<title>Status pause</title>
<ellipse fill="#c0c0c0" stroke="#000000" cx="494.7552" cy="-90" rx="49.8222" ry="18"/>
<text text-anchor="middle" x="494.7552" y="-87.2" font-family="Times,serif" font-size="11.00" fill="#000000">Status paused?</text>
</g>
<!-- Pause?&#45;&gt;Status pause -->
<g id="edge9" class="edge">
<title>Pause?&#45;&gt;Status pause</title>
<path fill="none" stroke="#000000" d="M609.541,-152.1397C589.5186,-141.3005 556.8255,-123.602 531.4412,-109.8601"/>
<polygon fill="#000000" stroke="#000000" points="532.9171,-106.6792 522.4568,-104.9963 529.5846,-112.835 532.9171,-106.6792"/>
</g>
<!-- Set speed 0.0 -->
<g id="node11" class="node">
<title>Set speed 0.0</title>
<polygon fill="#c0c0c0" stroke="#000000" points="627.7552,-108 562.9911,-90 627.7552,-72 692.5193,-90 627.7552,-108"/>
<text text-anchor="middle" x="627.7552" y="-87.2" font-family="Times,serif" font-size="11.00" fill="#000000">Set speed 0.0</text>
</g>
<!-- Pause?&#45;&gt;Set speed 0.0 -->
<g id="edge10" class="edge">
<title>Pause?&#45;&gt;Set speed 0.0</title>
<path fill="none" stroke="#000000" d="M627.7552,-143.8314C627.7552,-136.131 627.7552,-126.9743 627.7552,-118.4166"/>
<polygon fill="#000000" stroke="#000000" points="631.2553,-118.4132 627.7552,-108.4133 624.2553,-118.4133 631.2553,-118.4132"/>
</g>
<!-- Is at waypoint? -->
<g id="node13" class="node">
<title>Is at waypoint?</title>
<ellipse fill="#c0c0c0" stroke="#000000" cx="761.7552" cy="-90" rx="51.2277" ry="18"/>
<text text-anchor="middle" x="761.7552" y="-87.2" font-family="Times,serif" font-size="11.00" fill="#000000">Is at waypoint?</text>
</g>
<!-- Is at goal?&#45;&gt;Is at waypoint? -->
<g id="edge12" class="edge">
<title>Is at goal?&#45;&gt;Is at waypoint?</title>
<path fill="none" stroke="#000000" d="M936.5982,-155.2264C907.0615,-144.2075 847.7597,-122.0846 806.4541,-106.6752"/>
<polygon fill="#000000" stroke="#000000" points="807.4841,-103.3239 796.8914,-103.1078 805.0373,-109.8824 807.4841,-103.3239"/>
</g>
<!-- Is last waypoint? -->
<g id="node14" class="node">
<title>Is last waypoint?</title>
<ellipse fill="#c0c0c0" stroke="#000000" cx="885.7552" cy="-90" rx="55.1467" ry="18"/>
<text text-anchor="middle" x="885.7552" y="-87.2" font-family="Times,serif" font-size="11.00" fill="#000000">Is last waypoint?</text>
</g>
<!-- Is at goal?&#45;&gt;Is last waypoint? -->
<g id="edge13" class="edge">
<title>Is at goal?&#45;&gt;Is last waypoint?</title>
<path fill="none" stroke="#000000" d="M937.3436,-143.8314C928.9011,-135.0218 918.632,-124.3063 909.4855,-114.7621"/>
<polygon fill="#000000" stroke="#000000" points="911.8932,-112.2159 902.4472,-107.4177 906.8393,-117.0593 911.8932,-112.2159"/>
</g>
<!-- Set speed 0.0* -->
<g id="node15" class="node">
<title>Set speed 0.0*</title>
<polygon fill="#c0c0c0" stroke="#000000" points="1023.7552,-108 958.9911,-90 1023.7552,-72 1088.5193,-90 1023.7552,-108"/>
<text text-anchor="middle" x="1023.7552" y="-87.2" font-family="Times,serif" font-size="11.00" fill="#000000">Set speed 0.0</text>
</g>
<!-- Is at goal?&#45;&gt;Set speed 0.0* -->
<g id="edge14" class="edge">
<title>Is at goal?&#45;&gt;Set speed 0.0*</title>
<path fill="none" stroke="#000000" d="M972.1668,-143.8314C981.4564,-134.1378 992.9575,-122.1367 1002.7413,-111.9276"/>
<polygon fill="#000000" stroke="#000000" points="1005.431,-114.1794 1009.8231,-104.5378 1000.3771,-109.336 1005.431,-114.1794"/>
</g>
<!-- Planning timed out? -->
<g id="node17" class="node">
<title>Planning timed out?</title>
<ellipse fill="#c0c0c0" stroke="#000000" cx="1168.7552" cy="-90" rx="62.5783" ry="18"/>
<text text-anchor="middle" x="1168.7552" y="-87.2" font-family="Times,serif" font-size="11.00" fill="#000000">Planning timed out?</text>
</g>
<!-- Plannin timeout&#45;&gt;Planning timed out? -->
<g id="edge16" class="edge">
<title>Plannin timeout&#45;&gt;Planning timed out?</title>
<path fill="none" stroke="#000000" d="M1231.375,-145.6621C1220.9078,-136.3579 1207.597,-124.5261 1195.9416,-114.1657"/>
<polygon fill="#000000" stroke="#000000" points="1197.9915,-111.305 1188.1921,-107.2773 1193.3409,-116.5369 1197.9915,-111.305"/>
</g>
<!-- Remove waypoint -->
<g id="node18" class="node">
<title>Remove waypoint</title>
<polygon fill="#c0c0c0" stroke="#000000" points="1331.7552,-108 1249.2737,-90 1331.7552,-72 1414.2367,-90 1331.7552,-108"/>
<text text-anchor="middle" x="1331.7552" y="-87.2" font-family="Times,serif" font-size="11.00" fill="#000000">Remove waypoint</text>
</g>
<!-- Plannin timeout&#45;&gt;Remove waypoint -->
<g id="edge17" class="edge">
<title>Plannin timeout&#45;&gt;Remove waypoint</title>
<path fill="none" stroke="#000000" d="M1267.9536,-146.0209C1279.6758,-135.7283 1295.044,-122.2342 1307.7599,-111.069"/>
<polygon fill="#000000" stroke="#000000" points="1310.0733,-113.6955 1315.2784,-104.4674 1305.4546,-108.4354 1310.0733,-113.6955"/>
</g>
<!-- Reset planning timeout -->
<g id="node19" class="node">
<title>Reset planning timeout</title>
<polygon fill="#c0c0c0" stroke="#000000" points="1533.7552,-108 1432.3548,-90 1533.7552,-72 1635.1556,-90 1533.7552,-108"/>
<text text-anchor="middle" x="1533.7552" y="-87.2" font-family="Times,serif" font-size="11.00" fill="#000000">Reset planning timeout</text>
</g>
<!-- Plannin timeout&#45;&gt;Reset planning timeout -->
<g id="edge18" class="edge">
<title>Plannin timeout&#45;&gt;Reset planning timeout</title>
<path fill="none" stroke="#000000" d="M1267.9527,-157.3865C1310.4269,-146.6184 1417.3855,-119.5022 1481.9346,-103.1376"/>
<polygon fill="#000000" stroke="#000000" points="1483.0806,-106.4579 1491.9138,-100.6077 1481.3603,-99.6725 1483.0806,-106.4579"/>
</g>
<!-- Obstacle detected? -->
<g id="node21" class="node">
<title>Obstacle detected?</title>
<ellipse fill="#c0c0c0" stroke="#000000" cx="1714.7552" cy="-90" rx="61.1733" ry="18"/>
<text text-anchor="middle" x="1714.7552" y="-87.2" font-family="Times,serif" font-size="11.00" fill="#000000">Obstacle detected?</text>
</g>
<!-- Collision&#45;&gt;Obstacle detected? -->
<g id="edge20" class="edge">
<title>Collision&#45;&gt;Obstacle detected?</title>
<path fill="none" stroke="#000000" d="M1800.6398,-149.4586C1785.936,-139.279 1764.83,-124.6672 1747.221,-112.4763"/>
<polygon fill="#000000" stroke="#000000" points="1749.115,-109.5307 1738.9008,-106.7162 1745.1305,-115.286 1749.115,-109.5307"/>
</g>
<!-- Adjust speed while replanning -->
<g id="node22" class="node">
<title>Adjust speed while replanning</title>
<polygon fill="#c0c0c0" stroke="#000000" points="1923.7552,-108 1794.7271,-90 1923.7552,-72 2052.7833,-90 1923.7552,-108"/>
<text text-anchor="middle" x="1923.7552" y="-87.2" font-family="Times,serif" font-size="11.00" fill="#000000">Adjust speed while replanning</text>
</g>
<!-- Collision&#45;&gt;Adjust speed while replanning -->
<g id="edge21" class="edge">
<title>Collision&#45;&gt;Adjust speed while replanning</title>
<path fill="none" stroke="#000000" d="M1837.0448,-149.4586C1852.4958,-138.8635 1874.9491,-123.467 1893.1358,-110.9961"/>
<polygon fill="#000000" stroke="#000000" points="1895.4038,-113.6848 1901.6717,-105.1429 1891.4451,-107.9117 1895.4038,-113.6848"/>
</g>
<!-- Replan path* -->
<g id="node23" class="node">
<title>Replan path*</title>
<polygon fill="#c0c0c0" stroke="#000000" points="2130.7552,-108 2071.1964,-90 2130.7552,-72 2190.314,-90 2130.7552,-108"/>
<text text-anchor="middle" x="2130.7552" y="-87.2" font-family="Times,serif" font-size="11.00" fill="#000000">Replan path</text>
</g>
<!-- Collision&#45;&gt;Replan path* -->
<g id="edge22" class="edge">
<title>Collision&#45;&gt;Replan path*</title>
<path fill="none" stroke="#000000" d="M1836.7931,-158.2272C1877.1868,-149.7269 1977.9466,-128.2365 2061.7552,-108 2070.6737,-105.8465 2080.211,-103.4314 2089.2615,-101.0866"/>
<polygon fill="#000000" stroke="#000000" points="2090.4233,-104.4006 2099.2141,-98.4868 2088.6541,-97.6279 2090.4233,-104.4006"/>
</g>
<!-- Reached waypoint? -->
<g id="node25" class="node">
<title>Reached waypoint?</title>
<polygon fill="#00ffff" stroke="#000000" points="2244.7552,-108 2208.7552,-108 2208.7552,-72 2244.7552,-72 2244.7552,-108"/>
<text text-anchor="middle" x="2226.7552" y="-87.2" font-family="Times,serif" font-size="11.00" fill="#000000">→</text>
</g>
<!-- Path planning&#45;&gt;Reached waypoint? -->
<g id="edge24" class="edge">
<title>Path planning&#45;&gt;Reached waypoint?</title>
<path fill="none" stroke="#000000" d="M2226.7552,-143.8314C2226.7552,-136.131 2226.7552,-126.9743 2226.7552,-118.4166"/>
<polygon fill="#000000" stroke="#000000" points="2230.2553,-118.4132 2226.7552,-108.4133 2223.2553,-118.4133 2230.2553,-118.4132"/>
</g>
<!-- Drive -->
<g id="node29" class="node">
<title>Drive</title>
<polygon fill="#00ffff" stroke="#000000" points="2555.7552,-108 2519.7552,-108 2519.7552,-72 2555.7552,-72 2555.7552,-108"/>
<text text-anchor="middle" x="2537.7552" y="-87.2" font-family="Times,serif" font-size="11.00" fill="#000000">→</text>
</g>
<!-- Path planning&#45;&gt;Drive -->
<g id="edge28" class="edge">
<title>Path planning&#45;&gt;Drive</title>
<path fill="none" stroke="#000000" d="M2244.8201,-157.8178C2296.7809,-145.7883 2446.9085,-111.032 2509.6624,-96.5038"/>
<polygon fill="#000000" stroke="#000000" points="2510.6875,-99.8591 2519.6404,-94.1938 2509.1086,-93.0395 2510.6875,-99.8591"/>
</g>
<!-- Is at waypoint?* -->
<g id="node26" class="node">
<title>Is at waypoint?*</title>
<ellipse fill="#c0c0c0" stroke="#000000" cx="1971.7552" cy="-18" rx="51.2277" ry="18"/>
<text text-anchor="middle" x="1971.7552" y="-15.2" font-family="Times,serif" font-size="11.00" fill="#000000">Is at waypoint?</text>
</g>
<!-- Reached waypoint?&#45;&gt;Is at waypoint?* -->
<g id="edge25" class="edge">
<title>Reached waypoint?&#45;&gt;Is at waypoint?*</title>
<path fill="none" stroke="#000000" d="M2208.6871,-76.6343C2205.7975,-74.8901 2202.7654,-73.2711 2199.7552,-72 2129.408,-42.2951 2105.7188,-54.9865 2031.7552,-36 2027.8955,-35.0092 2023.9116,-33.9333 2019.918,-32.817"/>
<polygon fill="#000000" stroke="#000000" points="2020.6138,-29.3755 2010.0365,-29.9841 2018.6847,-36.1045 2020.6138,-29.3755"/>
</g>
<!-- Update waypoint -->
<g id="node27" class="node">
<title>Update waypoint</title>
<polygon fill="#c0c0c0" stroke="#000000" points="2118.7552,-36 2040.2772,-18 2118.7552,0 2197.2332,-18 2118.7552,-36"/>
<text text-anchor="middle" x="2118.7552" y="-15.2" font-family="Times,serif" font-size="11.00" fill="#000000">Update waypoint</text>
</g>
<!-- Reached waypoint?&#45;&gt;Update waypoint -->
<g id="edge26" class="edge">
<title>Reached waypoint?&#45;&gt;Update waypoint</title>
<path fill="none" stroke="#000000" d="M2208.4345,-77.7862C2191.7341,-66.6526 2166.7929,-50.0251 2147.4496,-37.1296"/>
<polygon fill="#000000" stroke="#000000" points="2149.2678,-34.1353 2139.0058,-31.5004 2145.3848,-39.9596 2149.2678,-34.1353"/>
</g>
<!-- Interpolate to next waypoint -->
<g id="node28" class="node">
<title>Interpolate to next waypoint</title>
<polygon fill="#c0c0c0" stroke="#000000" points="2334.7552,-36 2214.9367,-18 2334.7552,0 2454.5737,-18 2334.7552,-36"/>
<text text-anchor="middle" x="2334.7552" y="-15.2" font-family="Times,serif" font-size="11.00" fill="#000000">Interpolate to next waypoint</text>
</g>
<!-- Reached waypoint?&#45;&gt;Interpolate to next waypoint -->
<g id="edge27" class="edge">
<title>Reached waypoint?&#45;&gt;Interpolate to next waypoint</title>
<path fill="none" stroke="#000000" d="M2245.0759,-77.7862C2261.2544,-67.0005 2285.1667,-51.059 2304.2313,-38.3492"/>
<polygon fill="#000000" stroke="#000000" points="2306.2254,-41.2264 2312.6045,-32.7671 2302.3425,-35.402 2306.2254,-41.2264"/>
</g>
<!-- Set speed 1.0 -->
<g id="node30" class="node">
<title>Set speed 1.0</title>
<polygon fill="#c0c0c0" stroke="#000000" points="2537.7552,-36 2472.9911,-18 2537.7552,0 2602.5193,-18 2537.7552,-36"/>
<text text-anchor="middle" x="2537.7552" y="-15.2" font-family="Times,serif" font-size="11.00" fill="#000000">Set speed 1.0</text>
</g>
<!-- Drive&#45;&gt;Set speed 1.0 -->
<g id="edge29" class="edge">
<title>Drive&#45;&gt;Set speed 1.0</title>
<path fill="none" stroke="#000000" d="M2537.7552,-71.8314C2537.7552,-64.131 2537.7552,-54.9743 2537.7552,-46.4166"/>
<polygon fill="#000000" stroke="#000000" points="2541.2553,-46.4132 2537.7552,-36.4133 2534.2553,-46.4133 2541.2553,-46.4132"/>
</g>
<!-- Replan path** -->
<g id="node31" class="node">
<title>Replan path**</title>
<polygon fill="#c0c0c0" stroke="#000000" points="2679.7552,-36 2620.1964,-18 2679.7552,0 2739.314,-18 2679.7552,-36"/>
<text text-anchor="middle" x="2679.7552" y="-15.2" font-family="Times,serif" font-size="11.00" fill="#000000">Replan path</text>
</g>
<!-- Drive&#45;&gt;Replan path** -->
<g id="edge30" class="edge">
<title>Drive&#45;&gt;Replan path**</title>
<path fill="none" stroke="#000000" d="M2556.0285,-80.7347C2579.3138,-68.928 2619.933,-48.3324 2648.254,-33.9724"/>
<polygon fill="#000000" stroke="#000000" points="2650.008,-37.0073 2657.3442,-29.3633 2646.8424,-30.764 2650.008,-37.0073"/>
</g>
</g>
</svg>
