<?xml version="1.0" encoding="UTF-8" standalone="no"?>
<!-- Generated by graphviz version 2.40.1 (20161225.0304)
 -->

<!-- Title: behaviour_tree Pages: 1 -->

<svg
   xmlns:dc="http://purl.org/dc/elements/1.1/"
   xmlns:cc="http://creativecommons.org/ns#"
   xmlns:rdf="http://www.w3.org/1999/02/22-rdf-syntax-ns#"
   xmlns:svg="http://www.w3.org/2000/svg"
   xmlns="http://www.w3.org/2000/svg"
   xmlns:sodipodi="http://sodipodi.sourceforge.net/DTD/sodipodi-0.dtd"
   xmlns:inkscape="http://www.inkscape.org/namespaces/inkscape"
   width="1778.1506pt"
   height="753.22308pt"
   viewBox="0 0 1778.3319 753.22308"
   version="1.1"
   id="svg434"
   sodipodi:docname="behaviour_tree.svg"
   inkscape:version="0.92.3 (2405546, 2018-03-11)">
  <metadata
     id="metadata440">
    <rdf:RDF>
      <cc:Work
         rdf:about="">
        <dc:format>image/svg+xml</dc:format>
        <dc:type
           rdf:resource="http://purl.org/dc/dcmitype/StillImage" />
        <dc:title />
      </cc:Work>
    </rdf:RDF>
  </metadata>
  <defs
     id="defs438" />
  <sodipodi:namedview
     pagecolor="#ffffff"
     bordercolor="#666666"
     borderopacity="1"
     objecttolerance="10"
     gridtolerance="10"
     guidetolerance="10"
     inkscape:pageopacity="0"
     inkscape:pageshadow="2"
     inkscape:window-width="1920"
     inkscape:window-height="1025"
     id="namedview436"
     showgrid="false"
     showguides="false"
     fit-margin-top="0"
     fit-margin-left="0"
     fit-margin-right="0"
     fit-margin-bottom="0"
     inkscape:zoom="1.3506331"
     inkscape:cx="1132.7091"
     inkscape:cy="307.85977"
     inkscape:window-x="0"
     inkscape:window-y="27"
     inkscape:window-maximized="1"
     inkscape:current-layer="svg434" />
  <g
     class="node"
     id="node1"
     transform="translate(-111.01376,324.48309)">
    <title
       id="title6">Behaviour Tree</title>
    <polygon
       style="fill:#00ffff;stroke:#000000"
       id="polygon8"
       points="532.7552,-324 532.7552,-288 568.7552,-288 568.7552,-324 " />
    <text
       style="font-size:11px;font-family:Times, serif;text-anchor:middle;fill:#000000"
       id="text10"
       font-size="11.00"
       y="-303.20001"
       x="550.75519">→</text>
  </g>
  <g
     class="node"
     id="node2"
     transform="translate(0.2559967,323.4984)">
    <title
       id="title13">Initialization</title>
    <polygon
       style="fill:#00ffff;stroke:#000000"
       id="polygon15"
       points="306.7552,-252 270.7552,-252 270.7552,-216 306.7552,-216 " />
    <text
       style="font-size:11px;font-family:Times, serif;text-anchor:middle;fill:#000000"
       id="text17"
       font-size="11.00"
       y="-231.2"
       x="288.75519">?</text>
  </g>
  <g
     class="edge"
     id="edge1"
     transform="rotate(-8.175044,2610.8607,-73.29404)">
    <title
       id="title20">Behaviour Tree-&gt;Initialization</title>
    <path
       style="fill:none;stroke:#000000"
       inkscape:connector-curvature="0"
       id="path22"
       d="m 443.60347,-276.05495 c -44.8719,12.3311 -72.77927,19.50165 -126.79197,34.34485"
       sodipodi:nodetypes="cc" />
    <polygon
       style="fill:#000000;stroke:#000000"
       id="polygon24"
       points="306.8895,-238.9835 315.6046,-245.0083 317.4595,-238.2585 " />
  </g>
  <g
     class="node"
     id="node8"
     transform="translate(-613.57796,466.9511)">
    <title
       id="title27">Behaviour</title>
    <polygon
       style="fill:#00ffff;stroke:#000000"
       id="polygon29"
       points="1113.7552,-216 1113.7552,-252 1077.7552,-252 1077.7552,-216 " />
    <text
       style="font-size:11px;font-family:Times, serif;text-anchor:middle;fill:#000000"
       id="text31"
       font-size="11.00"
       y="-231.2"
       x="1095.7552">?</text>
  </g>
  <g
     class="edge"
     id="edge7"
     transform="rotate(65.684325,434.54946,-466.95817)">
    <title
       id="title34">Behaviour Tree-&gt;Behaviour</title>
    <path
       style="fill:none;stroke:#000000"
       inkscape:connector-curvature="0"
       id="path36"
       d="m 892.16065,-262.65155 c 79.9333,10.56 77.89775,12.04575 175.39615,24.92625"
       sodipodi:nodetypes="cc" />
    <polygon
       style="fill:#000000;stroke:#000000"
       id="polygon38"
       points="1077.554,-236.4046 1067.1817,-234.2445 1068.0985,-241.1842 " />
  </g>
  <g
     class="node"
     id="node3"
     transform="translate(0.2559967,323.4984)">
    <title
       id="title41">Has initialized?</title>
    <ellipse
       style="fill:#c0c0c0;stroke:#000000"
       id="ellipse43"
       ry="18"
       rx="52.1334"
       cy="-162"
       cx="200.7552" />
    <text
       style="font-size:11px;font-family:Times, serif;text-anchor:middle;fill:#000000"
       id="text45"
       font-size="11.00"
       y="-159.2"
       x="200.7552">Has initialized?</text>
  </g>
  <g
     class="edge"
     id="edge2"
     transform="translate(0.2559967,323.4984)">
    <title
       id="title48">Initialization-&gt;Has initialized?</title>
    <path
       style="fill:none;stroke:#000000"
       inkscape:connector-curvature="0"
       id="path50"
       d="m 270.5215,-219.0816 c -11.9235,9.7556 -27.7447,22.7002 -41.3061,33.7959" />
    <polygon
       style="fill:#000000;stroke:#000000"
       id="polygon52"
       points="221.1186,-178.661 226.6419,-187.7023 231.0746,-182.2845 " />
  </g>
  <g
     class="node"
     id="node4"
     transform="translate(0.2559967,323.4984)">
    <title
       id="title55">Initialize</title>
    <polygon
       style="fill:#00ffff;stroke:#000000"
       id="polygon57"
       points="306.7552,-180 270.7552,-180 270.7552,-144 306.7552,-144 " />
    <text
       style="font-size:11px;font-family:Times, serif;text-anchor:middle;fill:#000000"
       id="text59"
       font-size="11.00"
       y="-159.2"
       x="288.75519">→</text>
  </g>
  <g
     class="edge"
     id="edge3"
     transform="translate(0.2559967,323.4984)">
    <title
       id="title62">Initialization-&gt;Initialize</title>
    <path
       style="fill:none;stroke:#000000"
       inkscape:connector-curvature="0"
       id="path64"
       d="m 288.7552,-215.8314 c 0,7.7004 0,16.8571 0,25.4148" />
    <polygon
       style="fill:#000000;stroke:#000000"
       id="polygon66"
       points="288.7552,-180.4133 285.2553,-190.4133 292.2553,-190.4132 " />
  </g>
  <g
     class="node"
     id="node5"
     transform="translate(0.2559967,323.4984)">
    <title
       id="title69">Next waypoint exists?</title>
    <ellipse
       style="fill:#c0c0c0;stroke:#000000"
       id="ellipse71"
       ry="18"
       rx="69.5112"
       cy="-90"
       cx="69.755203" />
    <text
       style="font-size:11px;font-family:Times, serif;text-anchor:middle;fill:#000000"
       id="text73"
       font-size="11.00"
       y="-87.199997"
       x="69.755203">Next waypoint exists?</text>
  </g>
  <g
     class="edge"
     id="edge4"
     transform="translate(0.2559967,323.4984)">
    <title
       id="title76">Initialize-&gt;Next waypoint exists?</title>
    <path
       style="fill:none;stroke:#000000"
       inkscape:connector-curvature="0"
       id="path78"
       d="m 270.6125,-148.8035 c -2.8793,1.7675 -5.8887,3.4381 -8.8573,4.8035 -23.3489,10.739 -84.1753,27.1801 -131.1662,39.0999" />
    <polygon
       style="fill:#000000;stroke:#000000"
       id="polygon80"
       points="120.7901,-102.4288 129.6306,-108.268 131.3424,-101.4805 " />
  </g>
  <g
     class="node"
     id="node6"
     transform="translate(0.2559967,323.4984)">
    <title
       id="title83">Replan path</title>
    <polygon
       style="fill:#c0c0c0;stroke:#000000"
       id="polygon85"
       points="216.7552,-108 157.1964,-90 216.7552,-72 276.314,-90 " />
    <text
       style="font-size:11px;font-family:Times, serif;text-anchor:middle;fill:#000000"
       id="text87"
       font-size="11.00"
       y="-87.199997"
       x="216.7552">Replan path</text>
  </g>
  <g
     class="edge"
     id="edge5"
     transform="translate(0.2559967,323.4984)">
    <title
       id="title90">Initialize-&gt;Replan path</title>
    <path
       style="fill:none;stroke:#000000"
       inkscape:connector-curvature="0"
       id="path92"
       d="m 270.5865,-143.8314 c -9.9226,9.9227 -22.2632,22.2633 -32.6246,32.6247" />
    <polygon
       style="fill:#000000;stroke:#000000"
       id="polygon94"
       points="230.8298,-104.0747 235.4261,-113.6206 240.3758,-108.6709 " />
  </g>
  <g
     class="node"
     id="node7"
     transform="translate(0.2559967,323.4984)">
    <title
       id="title97">Set initialized</title>
    <polygon
       style="fill:#c0c0c0;stroke:#000000"
       id="polygon99"
       points="360.7552,-108 294.5892,-90 360.7552,-72 426.9211,-90 " />
    <text
       style="font-size:11px;font-family:Times, serif;text-anchor:middle;fill:#000000"
       id="text101"
       font-size="11.00"
       y="-87.199997"
       x="360.75519">Set initialized</text>
  </g>
  <g
     class="edge"
     id="edge6"
     transform="translate(0.2559967,323.4984)">
    <title
       id="title104">Initialize-&gt;Set initialized</title>
    <path
       style="fill:none;stroke:#000000"
       inkscape:connector-curvature="0"
       id="path106"
       d="m 306.9238,-143.8314 c 9.7886,9.7886 21.9302,21.9302 32.2036,32.2036" />
    <polygon
       style="fill:#000000;stroke:#000000"
       id="polygon108"
       points="346.2174,-104.5378 336.6714,-109.134 341.6212,-114.0838 " />
  </g>
  <g
     class="node"
     id="node9"
     transform="translate(-439.28816,463.01235)">
    <title
       id="title111">Pause?</title>
    <polygon
       style="fill:#00ffff;stroke:#000000"
       id="polygon113"
       points="609.7552,-144 645.7552,-144 645.7552,-180 609.7552,-180 " />
    <text
       style="font-size:11px;font-family:Times, serif;text-anchor:middle;fill:#000000"
       id="text115"
       font-size="11.00"
       y="-159.2"
       x="627.75519">→</text>
  </g>
  <g
     class="edge"
     id="edge8"
     transform="rotate(-6.3362957,4652.4172,4037.8649)">
    <title
       id="title118">Behaviour-&gt;Pause?</title>
    <path
       style="fill:none;stroke:#000000"
       inkscape:connector-curvature="0"
       id="path120"
       d="m 909.36709,-205.32989 c -71.5178,11.0027 -166.87559,25.67819 -253.69299,39.03469"
       sodipodi:nodetypes="cc" />
    <polygon
       style="fill:#000000;stroke:#000000"
       id="polygon122"
       points="655.1122,-169.75 656.1767,-162.8314 645.7608,-164.7701 " />
  </g>
  <g
     class="node"
     id="node12"
     transform="translate(-658.87362,539.81803)">
    <title
       id="title125">Is at goal?</title>
    <polygon
       style="fill:#00ffff;stroke:#000000"
       id="polygon127"
       points="972.7552,-144 972.7552,-180 936.7552,-180 936.7552,-144 " />
    <text
       style="font-size:11px;font-family:Times, serif;text-anchor:middle;fill:#000000"
       id="text129"
       font-size="11.00"
       y="-159.2"
       x="954.75519">→</text>
  </g>
  <g
     class="edge"
     id="edge11"
     transform="rotate(-5.6121557,6049.4922,6981.7531)">
    <title
       id="title132">Behaviour-&gt;Is at goal?</title>
    <path
       style="fill:none;stroke:#000000"
       inkscape:connector-curvature="0"
       id="path134"
       d="m 1165.2205,-261.19836 c -24.3242,12.4209 -155.3075,71.03266 -183.4716,85.41436"
       sodipodi:nodetypes="cc" />
    <polygon
       style="fill:#000000;stroke:#000000"
       id="polygon136"
       points="983.328,-172.6605 972.8302,-171.2298 980.1445,-178.8947 " />
  </g>
  <g
     class="node"
     id="node16"
     transform="translate(-791.68656,610.88677)">
    <title
       id="title139">Plannin timeout</title>
    <polygon
       style="fill:#00ffff;stroke:#000000"
       id="polygon141"
       points="1267.7552,-144 1267.7552,-180 1231.7552,-180 1231.7552,-144 " />
    <text
       style="font-size:11px;font-family:Times, serif;text-anchor:middle;fill:#000000"
       id="text143"
       font-size="11.00"
       y="-159.2"
       x="1249.7552">→</text>
  </g>
  <g
     class="edge"
     id="edge15"
     transform="rotate(70.029766,417.58034,-420.38502)">
    <title
       id="title146">Behaviour-&gt;Plannin timeout</title>
    <path
       style="fill:none;stroke:#000000"
       inkscape:connector-curvature="0"
       id="path148"
       d="m 1070.1827,-249.98917 c 26.7442,12.5038 120.6037,60.41937 151.882,75.04297"
       sodipodi:nodetypes="cc" />
    <polygon
       style="fill:#000000;stroke:#000000"
       id="polygon150"
       points="1231.5084,-170.531 1220.9672,-171.5957 1223.9319,-177.9369 " />
  </g>
  <g
     class="node"
     id="node20"
     transform="translate(-950.89428,679.89367)">
    <title
       id="title153">Collision</title>
    <polygon
       style="fill:#00ffff;stroke:#000000"
       id="polygon155"
       points="1836.7552,-180 1800.7552,-180 1800.7552,-144 1836.7552,-144 " />
    <text
       style="font-size:11px;font-family:Times, serif;text-anchor:middle;fill:#000000"
       id="text157"
       font-size="11.00"
       y="-159.2"
       x="1818.7552">→</text>
  </g>
  <g
     class="edge"
     id="edge19"
     transform="rotate(29.050868,55.00202,-1629.4279)">
    <title
       id="title160">Behaviour-&gt;Collision</title>
    <path
       style="fill:none;stroke:#000000"
       inkscape:connector-curvature="0"
       id="path162"
       d="m 1347.9886,-219.62325 c 97.4806,9.7076 323.1322,42.92105 442.4262,54.80095"
       sodipodi:nodetypes="cc" />
    <polygon
       style="fill:#000000;stroke:#000000"
       id="polygon164"
       points="1790.2732,-161.3192 1790.9669,-168.2847 1800.5709,-163.8109 " />
  </g>
  <g
     class="node"
     id="node24"
     transform="translate(-962.71053,752.7606)">
    <title
       id="title167">Path planning</title>
    <polygon
       style="fill:#00ffff;stroke:#000000"
       id="polygon169"
       points="2244.7552,-180 2208.7552,-180 2208.7552,-144 2244.7552,-144 " />
    <text
       style="font-size:11px;font-family:Times, serif;text-anchor:middle;fill:#000000"
       id="text171"
       font-size="11.00"
       y="-159.2"
       x="2226.7551">?</text>
  </g>
  <g
     class="edge"
     id="edge23"
     transform="rotate(19.957052,-353.66731,-2477.4844)">
    <title
       id="title174">Behaviour-&gt;Path planning</title>
    <path
       style="fill:none;stroke:#000000"
       inkscape:connector-curvature="0"
       id="path176"
       d="m 1373.829,-223.39692 c 130.6794,8.3191 664.6855,49.41342 824.7966,59.60622"
       sodipodi:nodetypes="cc" />
    <polygon
       style="fill:#000000;stroke:#000000"
       id="polygon178"
       points="2198.8854,-167.2814 2208.6428,-163.153 2198.4406,-160.2955 " />
  </g>
  <g
     class="node"
     id="node10"
     transform="translate(-439.28816,463.01235)">
    <title
       id="title181">Status pause</title>
    <ellipse
       style="fill:#c0c0c0;stroke:#000000"
       id="ellipse183"
       ry="18"
       rx="49.822201"
       cy="-90"
       cx="494.75519" />
    <text
       style="font-size:11px;font-family:Times, serif;text-anchor:middle;fill:#000000"
       id="text185"
       font-size="11.00"
       y="-87.199997"
       x="494.75519">Status paused?</text>
  </g>
  <g
     class="edge"
     id="edge9"
     transform="translate(-439.28816,463.01235)">
    <title
       id="title188">Pause?-&gt;Status pause</title>
    <path
       style="fill:none;stroke:#000000"
       inkscape:connector-curvature="0"
       id="path190"
       d="m 609.541,-152.1397 c -20.0224,10.8392 -52.7155,28.5377 -78.0998,42.2796" />
    <polygon
       style="fill:#000000;stroke:#000000"
       id="polygon192"
       points="532.9171,-106.6792 522.4568,-104.9963 529.5846,-112.835 " />
  </g>
  <g
     class="node"
     id="node11"
     transform="translate(-439.28816,463.01235)">
    <title
       id="title195">Set speed 0.0</title>
    <polygon
       style="fill:#c0c0c0;stroke:#000000"
       id="polygon197"
       points="627.7552,-72 692.5193,-90 627.7552,-108 562.9911,-90 " />
    <text
       style="font-size:11px;font-family:Times, serif;text-anchor:middle;fill:#000000"
       id="text199"
       font-size="11.00"
       y="-87.199997"
       x="627.75519">Set speed 0.0</text>
  </g>
  <g
     class="edge"
     id="edge10"
     transform="translate(-439.28816,463.01235)">
    <title
       id="title202">Pause?-&gt;Set speed 0.0</title>
    <path
       style="fill:none;stroke:#000000"
       inkscape:connector-curvature="0"
       id="path204"
       d="m 627.7552,-143.8314 c 0,7.7004 0,16.8571 0,25.4148" />
    <polygon
       style="fill:#000000;stroke:#000000"
       id="polygon206"
       points="631.2553,-118.4132 627.7552,-108.4133 624.2553,-118.4133 " />
  </g>
  <g
     class="node"
     id="node13"
     transform="translate(-658.87362,539.81803)">
    <title
       id="title209">Is at waypoint?</title>
    <ellipse
       style="fill:#c0c0c0;stroke:#000000"
       id="ellipse211"
       ry="18"
       rx="51.227699"
       cy="-90"
       cx="761.75519" />
    <text
       style="font-size:11px;font-family:Times, serif;text-anchor:middle;fill:#000000"
       id="text213"
       font-size="11.00"
       y="-87.199997"
       x="761.75519">Is at waypoint?</text>
  </g>
  <g
     class="edge"
     id="edge12"
     transform="translate(-658.87362,539.81803)">
    <title
       id="title216">Is at goal?-&gt;Is at waypoint?</title>
    <path
       style="fill:none;stroke:#000000"
       inkscape:connector-curvature="0"
       id="path218"
       d="m 936.5982,-155.2264 c -29.5367,11.0189 -88.8385,33.1418 -130.1441,48.5512" />
    <polygon
       style="fill:#000000;stroke:#000000"
       id="polygon220"
       points="796.8914,-103.1078 805.0373,-109.8824 807.4841,-103.3239 " />
  </g>
  <g
     class="node"
     id="node14"
     transform="translate(-658.87362,539.81803)">
    <title
       id="title223">Is last waypoint?</title>
    <ellipse
       style="fill:#c0c0c0;stroke:#000000"
       id="ellipse225"
       ry="18"
       rx="55.146702"
       cy="-90"
       cx="885.75519" />
    <text
       style="font-size:11px;font-family:Times, serif;text-anchor:middle;fill:#000000"
       id="text227"
       font-size="11.00"
       y="-87.199997"
       x="885.75519">Is last waypoint?</text>
  </g>
  <g
     class="edge"
     id="edge13"
     transform="translate(-658.87362,539.81803)">
    <title
       id="title230">Is at goal?-&gt;Is last waypoint?</title>
    <path
       style="fill:none;stroke:#000000"
       inkscape:connector-curvature="0"
       id="path232"
       d="m 937.3436,-143.8314 c -8.4425,8.8096 -18.7116,19.5251 -27.8581,29.0693" />
    <polygon
       style="fill:#000000;stroke:#000000"
       id="polygon234"
       points="902.4472,-107.4177 906.8393,-117.0593 911.8932,-112.2159 " />
  </g>
  <g
     class="node"
     id="node15"
     transform="translate(-658.87362,539.81803)">
    <title
       id="title237">Set speed 0.0*</title>
    <polygon
       style="fill:#c0c0c0;stroke:#000000"
       id="polygon239"
       points="1088.5193,-90 1023.7552,-108 958.9911,-90 1023.7552,-72 " />
    <text
       style="font-size:11px;font-family:Times, serif;text-anchor:middle;fill:#000000"
       id="text241"
       font-size="11.00"
       y="-87.199997"
       x="1023.7552">Set speed 0.0</text>
  </g>
  <g
     class="edge"
     id="edge14"
     transform="translate(-658.87362,539.81803)">
    <title
       id="title244">Is at goal?-&gt;Set speed 0.0*</title>
    <path
       style="fill:none;stroke:#000000"
       inkscape:connector-curvature="0"
       id="path246"
       d="m 972.1668,-143.8314 c 9.2896,9.6936 20.7907,21.6947 30.5745,31.9038" />
    <polygon
       style="fill:#000000;stroke:#000000"
       id="polygon248"
       points="1009.8231,-104.5378 1000.3771,-109.336 1005.431,-114.1794 " />
  </g>
  <g
     class="node"
     id="node17"
     transform="translate(-791.68656,610.88677)">
    <title
       id="title251">Planning timed out?</title>
    <ellipse
       style="fill:#c0c0c0;stroke:#000000"
       id="ellipse253"
       ry="18"
       rx="62.5783"
       cy="-90"
       cx="1168.7552" />
    <text
       style="font-size:11px;font-family:Times, serif;text-anchor:middle;fill:#000000"
       id="text255"
       font-size="11.00"
       y="-87.199997"
       x="1168.7552">Planning timed out?</text>
  </g>
  <g
     class="edge"
     id="edge16"
     transform="translate(-791.68656,610.88677)">
    <title
       id="title258">Plannin timeout-&gt;Planning timed out?</title>
    <path
       style="fill:none;stroke:#000000"
       inkscape:connector-curvature="0"
       id="path260"
       d="m 1231.375,-145.6621 c -10.4672,9.3042 -23.778,21.136 -35.4334,31.4964" />
    <polygon
       style="fill:#000000;stroke:#000000"
       id="polygon262"
       points="1188.1921,-107.2773 1193.3409,-116.5369 1197.9915,-111.305 " />
  </g>
  <g
     class="node"
     id="node18"
     transform="translate(-791.68656,610.88677)">
    <title
       id="title265">Remove waypoint</title>
    <polygon
       style="fill:#c0c0c0;stroke:#000000"
       id="polygon267"
       points="1414.2367,-90 1331.7552,-108 1249.2737,-90 1331.7552,-72 " />
    <text
       style="font-size:11px;font-family:Times, serif;text-anchor:middle;fill:#000000"
       id="text269"
       font-size="11.00"
       y="-87.199997"
       x="1331.7552">Adjust waypoint</text>
  </g>
  <g
     class="edge"
     id="edge17"
     transform="translate(-791.68656,610.88677)">
    <title
       id="title272">Plannin timeout-&gt;Remove waypoint</title>
    <path
       style="fill:none;stroke:#000000"
       inkscape:connector-curvature="0"
       id="path274"
       d="m 1267.9536,-146.0209 c 11.7222,10.2926 27.0904,23.7867 39.8063,34.9519" />
    <polygon
       style="fill:#000000;stroke:#000000"
       id="polygon276"
       points="1315.2784,-104.4674 1305.4546,-108.4354 1310.0733,-113.6955 " />
  </g>
  <g
     class="node"
     id="node19"
     transform="translate(-791.68656,610.88677)">
    <title
       id="title279">Reset planning timeout</title>
    <polygon
       style="fill:#c0c0c0;stroke:#000000"
       id="polygon281"
       points="1635.1556,-90 1533.7552,-108 1432.3548,-90 1533.7552,-72 " />
    <text
       style="font-size:11px;font-family:Times, serif;text-anchor:middle;fill:#000000"
       id="text283"
       font-size="11.00"
       y="-87.199997"
       x="1533.7552">Reset planning timeout</text>
  </g>
  <g
     class="edge"
     id="edge18"
     transform="translate(-791.68656,610.88677)">
    <title
       id="title286">Plannin timeout-&gt;Reset planning timeout</title>
    <path
       style="fill:none;stroke:#000000"
       inkscape:connector-curvature="0"
       id="path288"
       d="m 1267.9527,-157.3865 c 42.4742,10.7681 149.4328,37.8843 213.9819,54.2489" />
    <polygon
       style="fill:#000000;stroke:#000000"
       id="polygon290"
       points="1491.9138,-100.6077 1481.3603,-99.6725 1483.0806,-106.4579 " />
  </g>
  <g
     class="node"
     id="node21"
     transform="translate(-950.89428,679.89367)">
    <title
       id="title293">Obstacle detected?</title>
    <ellipse
       style="fill:#c0c0c0;stroke:#000000"
       id="ellipse295"
       ry="18"
       rx="61.173302"
       cy="-90"
       cx="1714.7552" />
    <text
       style="font-size:11px;font-family:Times, serif;text-anchor:middle;fill:#000000"
       id="text297"
       font-size="11.00"
       y="-87.199997"
       x="1714.7552">Obstacle detected?</text>
  </g>
  <g
     class="edge"
     id="edge20"
     transform="translate(-950.89428,679.89367)">
    <title
       id="title300">Collision-&gt;Obstacle detected?</title>
    <path
       style="fill:none;stroke:#000000"
       inkscape:connector-curvature="0"
       id="path302"
       d="m 1800.6398,-149.4586 c -14.7038,10.1796 -35.8098,24.7914 -53.4188,36.9823" />
    <polygon
       style="fill:#000000;stroke:#000000"
       id="polygon304"
       points="1749.115,-109.5307 1738.9008,-106.7162 1745.1305,-115.286 " />
  </g>
  <g
     class="node"
     id="node22"
     transform="translate(-950.89428,679.89367)">
    <title
       id="title307">Adjust speed while replanning</title>
    <polygon
       style="fill:#c0c0c0;stroke:#000000"
       id="polygon309"
       points="1923.7552,-108 1794.7271,-90 1923.7552,-72 2052.7833,-90 " />
    <text
       style="font-size:11px;font-family:Times, serif;text-anchor:middle;fill:#000000"
       id="text311"
       font-size="11.00"
       y="-87.199997"
       x="1923.7552">Adjust speed while replanning</text>
  </g>
  <g
     class="edge"
     id="edge21"
     transform="translate(-950.89428,679.89367)">
    <title
       id="title314">Collision-&gt;Adjust speed while replanning</title>
    <path
       style="fill:none;stroke:#000000"
       inkscape:connector-curvature="0"
       id="path316"
       d="m 1837.0448,-149.4586 c 15.451,10.5951 37.9043,25.9916 56.091,38.4625" />
    <polygon
       style="fill:#000000;stroke:#000000"
       id="polygon318"
       points="1895.4038,-113.6848 1901.6717,-105.1429 1891.4451,-107.9117 " />
  </g>
  <g
     class="node"
     id="node23"
     transform="translate(-950.89428,679.89367)">
    <title
       id="title321">Replan path*</title>
    <polygon
       style="fill:#c0c0c0;stroke:#000000"
       id="polygon323"
       points="2130.7552,-108 2071.1964,-90 2130.7552,-72 2190.314,-90 " />
    <text
       style="font-size:11px;font-family:Times, serif;text-anchor:middle;fill:#000000"
       id="text325"
       font-size="11.00"
       y="-87.199997"
       x="2130.7551">Replan path</text>
  </g>
  <g
     class="edge"
     id="edge22"
     transform="translate(-950.89428,679.89367)">
    <title
       id="title328">Collision-&gt;Replan path*</title>
    <path
       style="fill:none;stroke:#000000"
       inkscape:connector-curvature="0"
       id="path330"
       d="m 1836.7931,-158.2272 c 40.3937,8.5003 141.1535,29.9907 224.9621,50.2272 8.9185,2.1535 18.4558,4.5686 27.5063,6.9134" />
    <polygon
       style="fill:#000000;stroke:#000000"
       id="polygon332"
       points="2090.4233,-104.4006 2099.2141,-98.4868 2088.6541,-97.6279 " />
  </g>
  <g
     class="node"
     id="node25"
     transform="translate(-962.71053,752.7606)">
    <title
       id="title335">Reached waypoint?</title>
    <polygon
       style="fill:#00ffff;stroke:#000000"
       id="polygon337"
       points="2244.7552,-108 2208.7552,-108 2208.7552,-72 2244.7552,-72 " />
    <text
       style="font-size:11px;font-family:Times, serif;text-anchor:middle;fill:#000000"
       id="text339"
       font-size="11.00"
       y="-87.199997"
       x="2226.7551">→</text>
  </g>
  <g
     class="edge"
     id="edge24"
     transform="translate(-962.71053,752.7606)">
    <title
       id="title342">Path planning-&gt;Reached waypoint?</title>
    <path
       style="fill:none;stroke:#000000"
       inkscape:connector-curvature="0"
       id="path344"
       d="m 2226.7552,-143.8314 c 0,7.7004 0,16.8571 0,25.4148" />
    <polygon
       style="fill:#000000;stroke:#000000"
       id="polygon346"
       points="2230.2553,-118.4132 2226.7552,-108.4133 2223.2553,-118.4133 " />
  </g>
  <g
     class="node"
     id="node29"
     transform="translate(-962.71053,752.7606)">
    <title
       id="title349">Drive</title>
    <polygon
       style="fill:#00ffff;stroke:#000000"
       id="polygon351"
       points="2555.7552,-108 2519.7552,-108 2519.7552,-72 2555.7552,-72 " />
    <text
       style="font-size:11px;font-family:Times, serif;text-anchor:middle;fill:#000000"
       id="text353"
       font-size="11.00"
       y="-87.199997"
       x="2537.7551">→</text>
  </g>
  <g
     class="edge"
     id="edge28"
     transform="translate(-962.71053,752.7606)">
    <title
       id="title356">Path planning-&gt;Drive</title>
    <path
       style="fill:none;stroke:#000000"
       inkscape:connector-curvature="0"
       id="path358"
       d="m 2244.8201,-157.8178 c 51.9608,12.0295 202.0884,46.7858 264.8423,61.314" />
    <polygon
       style="fill:#000000;stroke:#000000"
       id="polygon360"
       points="2510.6875,-99.8591 2519.6404,-94.1938 2509.1086,-93.0395 " />
  </g>
  <g
     class="node"
     id="node26"
     transform="translate(-962.71053,752.7606)">
    <title
       id="title363">Is at waypoint?*</title>
    <ellipse
       style="fill:#c0c0c0;stroke:#000000"
       id="ellipse365"
       ry="18"
       rx="51.227699"
       cy="-18"
       cx="1971.7552" />
    <text
       style="font-size:11px;font-family:Times, serif;text-anchor:middle;fill:#000000"
       id="text367"
       font-size="11.00"
       y="-15.2"
       x="1971.7552">Is at waypoint?</text>
  </g>
  <g
     class="edge"
     id="edge25"
     transform="translate(-962.71053,752.7606)">
    <title
       id="title370">Reached waypoint?-&gt;Is at waypoint?*</title>
    <path
       style="fill:none;stroke:#000000"
       inkscape:connector-curvature="0"
       id="path372"
       d="M 2208.6871,-88.450558 C 2142.6643,-73.207593 2074.7007,-50.764693 2019.918,-32.817"
       sodipodi:nodetypes="cc" />
    <polygon
       style="fill:#000000;stroke:#000000"
       id="polygon374"
       points="2020.6138,-29.3755 2010.0365,-29.9841 2018.6847,-36.1045 " />
  </g>
  <g
     class="node"
     id="node27"
     transform="translate(-962.71053,752.7606)">
    <title
       id="title377">Update waypoint</title>
    <polygon
       style="fill:#c0c0c0;stroke:#000000"
       id="polygon379"
       points="2118.7552,-36 2040.2772,-18 2118.7552,0 2197.2332,-18 " />
    <text
       style="font-size:11px;font-family:Times, serif;text-anchor:middle;fill:#000000"
       id="text381"
       font-size="11.00"
       y="-15.2"
       x="2118.7551">Update waypoint</text>
  </g>
  <g
     class="edge"
     id="edge26"
     transform="translate(-962.71053,752.7606)">
    <title
       id="title384">Reached waypoint?-&gt;Update waypoint</title>
    <path
       style="fill:none;stroke:#000000"
       inkscape:connector-curvature="0"
       id="path386"
       d="m 2208.4345,-77.7862 c -16.7004,11.1336 -41.6416,27.7611 -60.9849,40.6566" />
    <polygon
       style="fill:#000000;stroke:#000000"
       id="polygon388"
       points="2149.2678,-34.1353 2139.0058,-31.5004 2145.3848,-39.9596 " />
  </g>
  <g
     class="node"
     id="node28"
     transform="translate(-962.71053,752.7606)">
    <title
       id="title391">Interpolate to next waypoint</title>
    <polygon
       style="fill:#c0c0c0;stroke:#000000"
       id="polygon393"
       points="2334.7552,-36 2214.9367,-18 2334.7552,0 2454.5737,-18 " />
    <text
       style="font-size:11px;font-family:Times, serif;text-anchor:middle;fill:#000000"
       id="text395"
       font-size="11.00"
       y="-15.2"
       x="2334.7551">Interpolate to next waypoint</text>
  </g>
  <g
     class="edge"
     id="edge27"
     transform="translate(-962.71053,752.7606)">
    <title
       id="title398">Reached waypoint?-&gt;Interpolate to next waypoint</title>
    <path
       style="fill:none;stroke:#000000"
       inkscape:connector-curvature="0"
       id="path400"
       d="m 2245.0759,-77.7862 c 16.1785,10.7857 40.0908,26.7272 59.1554,39.437" />
    <polygon
       style="fill:#000000;stroke:#000000"
       id="polygon402"
       points="2306.2254,-41.2264 2312.6045,-32.7671 2302.3425,-35.402 " />
  </g>
  <g
     class="node"
     id="node30"
     transform="translate(-962.71053,752.7606)">
    <title
       id="title405">Set speed 1.0</title>
    <polygon
       style="fill:#c0c0c0;stroke:#000000"
       id="polygon407"
       points="2537.7552,-36 2472.9911,-18 2537.7552,0 2602.5193,-18 " />
    <text
       style="font-size:11px;font-family:Times, serif;text-anchor:middle;fill:#000000"
       id="text409"
       font-size="11.00"
       y="-15.2"
       x="2537.7551">Set speed 1.0</text>
  </g>
  <g
     class="edge"
     id="edge29"
     transform="translate(-962.71053,752.7606)">
    <title
       id="title412">Drive-&gt;Set speed 1.0</title>
    <path
       style="fill:none;stroke:#000000"
       inkscape:connector-curvature="0"
       id="path414"
       d="m 2537.7552,-71.8314 c 0,7.7004 0,16.8571 0,25.4148" />
    <polygon
       style="fill:#000000;stroke:#000000"
       id="polygon416"
       points="2541.2553,-46.4132 2537.7552,-36.4133 2534.2553,-46.4133 " />
  </g>
  <g
     class="node"
     id="node31"
     transform="translate(-962.71053,752.7606)">
    <title
       id="title419">Replan path**</title>
    <polygon
       style="fill:#c0c0c0;stroke:#000000"
       id="polygon421"
       points="2679.7552,-36 2620.1964,-18 2679.7552,0 2739.314,-18 " />
    <text
       style="font-size:11px;font-family:Times, serif;text-anchor:middle;fill:#000000"
       id="text423"
       font-size="11.00"
       y="-15.2"
       x="2679.7551">Replan path</text>
  </g>
  <g
     class="edge"
     id="edge30"
     transform="translate(-962.71053,752.7606)">
    <title
       id="title426">Drive-&gt;Replan path**</title>
    <path
       style="fill:none;stroke:#000000"
       inkscape:connector-curvature="0"
       id="path428"
       d="m 2556.0285,-80.7347 c 23.2853,11.8067 63.9045,32.4023 92.2255,46.7623" />
    <polygon
       style="fill:#000000;stroke:#000000"
       id="polygon430"
       points="2650.008,-37.0073 2657.3442,-29.3633 2646.8424,-30.764 " />
  </g>
</svg>
